<mxfile host="app.diagrams.net" modified="2023-03-22T18:30:44.527Z" agent="5.0 (Windows NT 10.0; Win64; x64) AppleWebKit/537.36 (KHTML, like Gecko) Chrome/111.0.0.0 Safari/537.36" etag="5HZ6KVdTlXWPshexuNOo" version="21.0.10" type="github">
  <diagram name="Pagina-1" id="o7ADCSL_u_FMTNNJPQ_h">
    <mxGraphModel dx="669" dy="137" grid="1" gridSize="10" guides="1" tooltips="1" connect="1" arrows="1" fold="1" page="0" pageScale="1" pageWidth="1169" pageHeight="827" math="0" shadow="0">
      <root>
        <mxCell id="0" />
        <mxCell id="1" parent="0" />
        <mxCell id="zl6CoaHRayLzBle9GIP0-1" value="" style="endArrow=none;html=1;rounded=0;fontSize=10;entryX=0;entryY=0.25;entryDx=0;entryDy=0;" parent="1" target="zl6CoaHRayLzBle9GIP0-70" edge="1">
          <mxGeometry width="50" height="50" relative="1" as="geometry">
            <mxPoint x="-230" y="330" as="sourcePoint" />
            <mxPoint x="-160" y="330" as="targetPoint" />
          </mxGeometry>
        </mxCell>
        <mxCell id="zl6CoaHRayLzBle9GIP0-2" value="" style="endArrow=none;html=1;rounded=0;fontSize=10;" parent="1" edge="1">
          <mxGeometry width="50" height="50" relative="1" as="geometry">
            <mxPoint x="-153.23000000000002" y="357.43000000000006" as="sourcePoint" />
            <mxPoint x="-153.23000000000002" y="317.43000000000006" as="targetPoint" />
            <Array as="points">
              <mxPoint x="-153.23" y="337.43" />
            </Array>
          </mxGeometry>
        </mxCell>
        <mxCell id="zl6CoaHRayLzBle9GIP0-3" value="" style="endArrow=none;html=1;rounded=0;fontSize=10;" parent="1" edge="1">
          <mxGeometry width="50" height="50" relative="1" as="geometry">
            <mxPoint x="-153.23000000000002" y="357.43000000000006" as="sourcePoint" />
            <mxPoint x="-133.23000000000002" y="367.43000000000006" as="targetPoint" />
          </mxGeometry>
        </mxCell>
        <mxCell id="zl6CoaHRayLzBle9GIP0-4" value="" style="endArrow=none;html=1;rounded=0;fontSize=10;" parent="1" edge="1">
          <mxGeometry width="50" height="50" relative="1" as="geometry">
            <mxPoint x="-153.23000000000002" y="377.43000000000006" as="sourcePoint" />
            <mxPoint x="-133.23000000000002" y="367.43000000000006" as="targetPoint" />
          </mxGeometry>
        </mxCell>
        <mxCell id="zl6CoaHRayLzBle9GIP0-5" value="" style="endArrow=none;html=1;rounded=0;fontSize=10;" parent="1" edge="1">
          <mxGeometry width="50" height="50" relative="1" as="geometry">
            <mxPoint x="-153.23000000000002" y="417.43000000000006" as="sourcePoint" />
            <mxPoint x="-153.23000000000002" y="377.43000000000006" as="targetPoint" />
            <Array as="points">
              <mxPoint x="-153.23" y="397.43" />
            </Array>
          </mxGeometry>
        </mxCell>
        <mxCell id="zl6CoaHRayLzBle9GIP0-6" value="" style="endArrow=none;html=1;rounded=0;fontSize=10;" parent="1" edge="1">
          <mxGeometry width="50" height="50" relative="1" as="geometry">
            <mxPoint x="-153.23000000000002" y="417.43000000000006" as="sourcePoint" />
            <mxPoint x="-103.23000000000002" y="387.43000000000006" as="targetPoint" />
            <Array as="points" />
          </mxGeometry>
        </mxCell>
        <mxCell id="zl6CoaHRayLzBle9GIP0-7" value="" style="endArrow=none;html=1;rounded=0;fontSize=10;" parent="1" edge="1">
          <mxGeometry width="50" height="50" relative="1" as="geometry">
            <mxPoint x="-153.23000000000002" y="317.43000000000006" as="sourcePoint" />
            <mxPoint x="-103.23000000000002" y="347.43000000000006" as="targetPoint" />
            <Array as="points" />
          </mxGeometry>
        </mxCell>
        <mxCell id="zl6CoaHRayLzBle9GIP0-8" value="" style="endArrow=none;html=1;rounded=0;fontSize=10;" parent="1" edge="1">
          <mxGeometry width="50" height="50" relative="1" as="geometry">
            <mxPoint x="-103.23000000000002" y="387.43000000000006" as="sourcePoint" />
            <mxPoint x="-103.23000000000002" y="347.43000000000006" as="targetPoint" />
          </mxGeometry>
        </mxCell>
        <mxCell id="zl6CoaHRayLzBle9GIP0-9" value="&lt;font style=&quot;font-size: 14px;&quot;&gt;+&lt;/font&gt;" style="text;html=1;strokeColor=none;fillColor=none;align=center;verticalAlign=middle;whiteSpace=wrap;rounded=0;fontSize=10;" parent="1" vertex="1">
          <mxGeometry x="-133.23" y="347.43" width="30" height="40" as="geometry" />
        </mxCell>
        <mxCell id="zl6CoaHRayLzBle9GIP0-10" value="&lt;font style=&quot;font-size: 12px;&quot;&gt;4&lt;/font&gt;" style="text;html=1;strokeColor=none;fillColor=none;align=center;verticalAlign=middle;whiteSpace=wrap;rounded=0;fontSize=14;" parent="1" vertex="1">
          <mxGeometry x="-168.13" y="378.68" width="10" height="20" as="geometry" />
        </mxCell>
        <mxCell id="zl6CoaHRayLzBle9GIP0-11" value="" style="endArrow=none;html=1;rounded=0;fontSize=12;" parent="1" edge="1">
          <mxGeometry width="50" height="50" relative="1" as="geometry">
            <mxPoint x="-190" y="410" as="sourcePoint" />
            <mxPoint x="-190" y="330" as="targetPoint" />
          </mxGeometry>
        </mxCell>
        <mxCell id="zl6CoaHRayLzBle9GIP0-12" value="&lt;font style=&quot;font-size: 6px;&quot;&gt;31 downto 0 &amp;amp;&amp;amp; &quot;00&quot;&lt;/font&gt;" style="rounded=0;whiteSpace=wrap;html=1;fontSize=12;" parent="1" vertex="1">
          <mxGeometry x="-210" y="410" width="40" height="50" as="geometry" />
        </mxCell>
        <mxCell id="zl6CoaHRayLzBle9GIP0-13" value="IRAM" style="rounded=0;whiteSpace=wrap;html=1;fontSize=6;" parent="1" vertex="1">
          <mxGeometry x="-197.87" y="526.25" width="80" height="93.75" as="geometry" />
        </mxCell>
        <mxCell id="zl6CoaHRayLzBle9GIP0-14" value="" style="endArrow=none;html=1;rounded=0;fontSize=6;entryX=0.5;entryY=1;entryDx=0;entryDy=0;exitX=0.098;exitY=-0.002;exitDx=0;exitDy=0;exitPerimeter=0;" parent="1" source="zl6CoaHRayLzBle9GIP0-13" target="zl6CoaHRayLzBle9GIP0-12" edge="1">
          <mxGeometry width="50" height="50" relative="1" as="geometry">
            <mxPoint x="-190" y="520" as="sourcePoint" />
            <mxPoint x="-140" y="470" as="targetPoint" />
          </mxGeometry>
        </mxCell>
        <mxCell id="zl6CoaHRayLzBle9GIP0-15" value="" style="endArrow=none;html=1;rounded=0;fontSize=10;exitX=1;exitY=0.5;exitDx=0;exitDy=0;" parent="1" source="zl6CoaHRayLzBle9GIP0-9" edge="1">
          <mxGeometry width="50" height="50" relative="1" as="geometry">
            <mxPoint x="-100" y="367.48" as="sourcePoint" />
            <mxPoint x="-50" y="367.3800000000001" as="targetPoint" />
            <Array as="points">
              <mxPoint x="-70" y="367.38000000000005" />
              <mxPoint x="-50" y="367.38000000000005" />
            </Array>
          </mxGeometry>
        </mxCell>
        <mxCell id="zl6CoaHRayLzBle9GIP0-16" value="" style="endArrow=none;html=1;rounded=0;fontSize=6;exitX=0.851;exitY=0;exitDx=0;exitDy=0;exitPerimeter=0;" parent="1" source="zl6CoaHRayLzBle9GIP0-13" edge="1">
          <mxGeometry width="50" height="50" relative="1" as="geometry">
            <mxPoint x="-130" y="500" as="sourcePoint" />
            <mxPoint x="-130" y="440" as="targetPoint" />
          </mxGeometry>
        </mxCell>
        <mxCell id="zl6CoaHRayLzBle9GIP0-17" value="" style="endArrow=none;html=1;rounded=0;fontSize=6;" parent="1" edge="1">
          <mxGeometry width="50" height="50" relative="1" as="geometry">
            <mxPoint x="-130" y="440" as="sourcePoint" />
            <mxPoint x="-50" y="440" as="targetPoint" />
          </mxGeometry>
        </mxCell>
        <mxCell id="zl6CoaHRayLzBle9GIP0-18" value="" style="rounded=0;whiteSpace=wrap;html=1;fontSize=6;" parent="1" vertex="1">
          <mxGeometry x="-50" y="340" width="30" height="70" as="geometry" />
        </mxCell>
        <mxCell id="zl6CoaHRayLzBle9GIP0-19" value="" style="triangle;whiteSpace=wrap;html=1;fontSize=6;" parent="1" vertex="1">
          <mxGeometry x="-50" y="385" width="10" height="15" as="geometry" />
        </mxCell>
        <mxCell id="zl6CoaHRayLzBle9GIP0-20" value="" style="rounded=0;whiteSpace=wrap;html=1;fontSize=6;" parent="1" vertex="1">
          <mxGeometry x="-50" y="426.25" width="30" height="70" as="geometry" />
        </mxCell>
        <mxCell id="zl6CoaHRayLzBle9GIP0-21" value="" style="triangle;whiteSpace=wrap;html=1;fontSize=6;" parent="1" vertex="1">
          <mxGeometry x="-50" y="471.25" width="10" height="15" as="geometry" />
        </mxCell>
        <mxCell id="zl6CoaHRayLzBle9GIP0-22" value="" style="endArrow=none;html=1;rounded=0;fontSize=6;" parent="1" edge="1">
          <mxGeometry width="50" height="50" relative="1" as="geometry">
            <mxPoint x="-60" y="392.45000000000005" as="sourcePoint" />
            <mxPoint x="-50" y="392.45000000000005" as="targetPoint" />
          </mxGeometry>
        </mxCell>
        <mxCell id="zl6CoaHRayLzBle9GIP0-23" value="" style="endArrow=none;html=1;rounded=0;fontSize=6;" parent="1" edge="1">
          <mxGeometry width="50" height="50" relative="1" as="geometry">
            <mxPoint x="-60" y="478.70000000000005" as="sourcePoint" />
            <mxPoint x="-50" y="478.70000000000005" as="targetPoint" />
          </mxGeometry>
        </mxCell>
        <mxCell id="zl6CoaHRayLzBle9GIP0-24" value="" style="endArrow=none;html=1;rounded=0;fontSize=6;" parent="1" edge="1">
          <mxGeometry width="50" height="50" relative="1" as="geometry">
            <mxPoint x="-20" y="359.96000000000004" as="sourcePoint" />
            <mxPoint x="20" y="359.96000000000004" as="targetPoint" />
          </mxGeometry>
        </mxCell>
        <mxCell id="zl6CoaHRayLzBle9GIP0-25" value="tomem" style="text;html=1;strokeColor=none;fillColor=none;align=center;verticalAlign=middle;whiteSpace=wrap;rounded=0;fontSize=6;" parent="1" vertex="1">
          <mxGeometry x="-190" y="460" width="30" height="30" as="geometry" />
        </mxCell>
        <mxCell id="zl6CoaHRayLzBle9GIP0-26" value="to_IRAM" style="text;html=1;strokeColor=none;fillColor=none;align=center;verticalAlign=middle;whiteSpace=wrap;rounded=0;fontSize=6;" parent="1" vertex="1">
          <mxGeometry x="-230" y="505" width="50" height="20" as="geometry" />
        </mxCell>
        <mxCell id="zl6CoaHRayLzBle9GIP0-27" value="instr_reg_out" style="text;html=1;strokeColor=none;fillColor=none;align=center;verticalAlign=middle;whiteSpace=wrap;rounded=0;fontSize=6;" parent="1" vertex="1">
          <mxGeometry x="-30" y="425" width="60" height="20" as="geometry" />
        </mxCell>
        <mxCell id="zl6CoaHRayLzBle9GIP0-28" value="to_IR" style="text;html=1;strokeColor=none;fillColor=none;align=center;verticalAlign=middle;whiteSpace=wrap;rounded=0;fontSize=6;" parent="1" vertex="1">
          <mxGeometry x="-160" y="510.94000000000005" width="30" height="15.63" as="geometry" />
        </mxCell>
        <mxCell id="zl6CoaHRayLzBle9GIP0-29" value="PC" style="rounded=0;whiteSpace=wrap;html=1;fontSize=6;" parent="1" vertex="1">
          <mxGeometry x="190" y="450" width="40" height="71.31" as="geometry" />
        </mxCell>
        <mxCell id="zl6CoaHRayLzBle9GIP0-30" value="" style="triangle;whiteSpace=wrap;html=1;fontSize=6;" parent="1" vertex="1">
          <mxGeometry x="190" y="496.31" width="10" height="15" as="geometry" />
        </mxCell>
        <mxCell id="zl6CoaHRayLzBle9GIP0-31" value="" style="endArrow=none;html=1;rounded=0;fontSize=6;" parent="1" edge="1">
          <mxGeometry width="50" height="50" relative="1" as="geometry">
            <mxPoint x="180" y="503.76000000000005" as="sourcePoint" />
            <mxPoint x="190" y="503.76000000000005" as="targetPoint" />
          </mxGeometry>
        </mxCell>
        <mxCell id="zl6CoaHRayLzBle9GIP0-32" value="" style="endArrow=none;html=1;rounded=0;dashed=1;" parent="1" edge="1">
          <mxGeometry width="50" height="50" relative="1" as="geometry">
            <mxPoint x="200" y="450" as="sourcePoint" />
            <mxPoint x="200" y="300" as="targetPoint" />
          </mxGeometry>
        </mxCell>
        <mxCell id="zl6CoaHRayLzBle9GIP0-33" value="" style="endArrow=none;html=1;rounded=0;entryX=0.54;entryY=-0.013;entryDx=0;entryDy=0;entryPerimeter=0;" parent="1" target="zl6CoaHRayLzBle9GIP0-44" edge="1">
          <mxGeometry width="50" height="50" relative="1" as="geometry">
            <mxPoint x="-250" y="304" as="sourcePoint" />
            <mxPoint x="-70" y="303.75" as="targetPoint" />
          </mxGeometry>
        </mxCell>
        <mxCell id="zl6CoaHRayLzBle9GIP0-34" value="" style="endArrow=none;html=1;rounded=0;dashed=1;" parent="1" edge="1">
          <mxGeometry width="50" height="50" relative="1" as="geometry">
            <mxPoint x="-270" y="310" as="sourcePoint" />
            <mxPoint x="-270" y="220" as="targetPoint" />
          </mxGeometry>
        </mxCell>
        <mxCell id="zl6CoaHRayLzBle9GIP0-35" value="EN1" style="text;html=1;strokeColor=none;fillColor=none;align=center;verticalAlign=middle;whiteSpace=wrap;rounded=0;fontSize=6;" parent="1" vertex="1">
          <mxGeometry x="-290" y="200" width="40" height="30" as="geometry" />
        </mxCell>
        <mxCell id="zl6CoaHRayLzBle9GIP0-36" value="" style="endArrow=none;html=1;rounded=0;" parent="1" edge="1">
          <mxGeometry width="50" height="50" relative="1" as="geometry">
            <mxPoint x="-35" y="426.25" as="sourcePoint" />
            <mxPoint x="-35" y="420" as="targetPoint" />
          </mxGeometry>
        </mxCell>
        <mxCell id="zl6CoaHRayLzBle9GIP0-37" value="" style="endArrow=none;html=1;rounded=0;exitX=0.5;exitY=0;exitDx=0;exitDy=0;dashed=1;" parent="1" edge="1">
          <mxGeometry width="50" height="50" relative="1" as="geometry">
            <mxPoint x="-35.07999999999993" y="340" as="sourcePoint" />
            <mxPoint x="-35.07999999999993" y="330" as="targetPoint" />
          </mxGeometry>
        </mxCell>
        <mxCell id="zl6CoaHRayLzBle9GIP0-38" value="" style="endArrow=none;html=1;rounded=0;exitX=1;exitY=0.5;exitDx=0;exitDy=0;dashed=1;" parent="1" source="zl6CoaHRayLzBle9GIP0-39" edge="1">
          <mxGeometry width="50" height="50" relative="1" as="geometry">
            <mxPoint x="-30" y="419.96" as="sourcePoint" />
            <mxPoint x="-10" y="420" as="targetPoint" />
          </mxGeometry>
        </mxCell>
        <mxCell id="zl6CoaHRayLzBle9GIP0-39" value="&lt;span style=&quot;background-color: rgb(255, 255, 255);&quot;&gt;&lt;font color=&quot;#ffffff&quot;&gt;-&lt;/font&gt;&lt;/span&gt;" style="text;html=1;strokeColor=none;fillColor=none;align=center;verticalAlign=middle;whiteSpace=wrap;rounded=0;fontSize=6;" parent="1" vertex="1">
          <mxGeometry x="-90" y="410" width="55" height="20" as="geometry" />
        </mxCell>
        <mxCell id="zl6CoaHRayLzBle9GIP0-40" value="" style="endArrow=none;html=1;rounded=0;dashed=1;" parent="1" edge="1">
          <mxGeometry width="50" height="50" relative="1" as="geometry">
            <mxPoint x="-35" y="330" as="sourcePoint" />
            <mxPoint x="-10" y="330" as="targetPoint" />
          </mxGeometry>
        </mxCell>
        <mxCell id="zl6CoaHRayLzBle9GIP0-41" value="" style="endArrow=none;html=1;rounded=0;dashed=1;" parent="1" edge="1">
          <mxGeometry width="50" height="50" relative="1" as="geometry">
            <mxPoint x="-10" y="420" as="sourcePoint" />
            <mxPoint x="-10" y="220" as="targetPoint" />
          </mxGeometry>
        </mxCell>
        <mxCell id="zl6CoaHRayLzBle9GIP0-42" value="EN1" style="text;html=1;strokeColor=none;fillColor=none;align=center;verticalAlign=middle;whiteSpace=wrap;rounded=0;fontSize=6;" parent="1" vertex="1">
          <mxGeometry x="-25" y="200" width="30" height="30" as="geometry" />
        </mxCell>
        <mxCell id="zl6CoaHRayLzBle9GIP0-43" value="" style="endArrow=none;html=1;rounded=0;strokeColor=#000000;fontSize=6;exitX=0.543;exitY=0.998;exitDx=0;exitDy=0;exitPerimeter=0;" parent="1" source="zl6CoaHRayLzBle9GIP0-44" edge="1">
          <mxGeometry width="50" height="50" relative="1" as="geometry">
            <mxPoint x="-70" y="303.7500000000001" as="sourcePoint" />
            <mxPoint x="20" y="303.75" as="targetPoint" />
          </mxGeometry>
        </mxCell>
        <mxCell id="zl6CoaHRayLzBle9GIP0-44" value="" style="shape=trapezoid;perimeter=trapezoidPerimeter;whiteSpace=wrap;html=1;fixedSize=1;fontSize=6;direction=north;size=16.25;" parent="1" vertex="1">
          <mxGeometry x="-91.5" y="278.13" width="20" height="56.25" as="geometry" />
        </mxCell>
        <mxCell id="zl6CoaHRayLzBle9GIP0-45" value="" style="endArrow=none;html=1;rounded=0;strokeColor=#000000;fontSize=6;exitX=0.894;exitY=0.548;exitDx=0;exitDy=0;exitPerimeter=0;dashed=1;" parent="1" source="zl6CoaHRayLzBle9GIP0-44" edge="1">
          <mxGeometry width="50" height="50" relative="1" as="geometry">
            <mxPoint x="-80" y="280" as="sourcePoint" />
            <mxPoint x="-80" y="270" as="targetPoint" />
          </mxGeometry>
        </mxCell>
        <mxCell id="zl6CoaHRayLzBle9GIP0-46" value="" style="endArrow=none;html=1;rounded=0;strokeColor=#000000;fontSize=6;entryX=0.014;entryY=0.171;entryDx=0;entryDy=0;entryPerimeter=0;exitX=0.75;exitY=0;exitDx=0;exitDy=0;" parent="1" source="zl6CoaHRayLzBle9GIP0-71" target="zl6CoaHRayLzBle9GIP0-54" edge="1">
          <mxGeometry width="50" height="50" relative="1" as="geometry">
            <mxPoint x="-60" y="370" as="sourcePoint" />
            <mxPoint x="-60" y="330" as="targetPoint" />
          </mxGeometry>
        </mxCell>
        <mxCell id="zl6CoaHRayLzBle9GIP0-47" value="" style="endArrow=none;html=1;rounded=0;strokeColor=#000000;fontSize=6;exitX=0.144;exitY=1.003;exitDx=0;exitDy=0;exitPerimeter=0;" parent="1" source="zl6CoaHRayLzBle9GIP0-44" edge="1">
          <mxGeometry width="50" height="50" relative="1" as="geometry">
            <mxPoint x="-70" y="326.22" as="sourcePoint" />
            <mxPoint x="-60" y="326.2199999999998" as="targetPoint" />
          </mxGeometry>
        </mxCell>
        <mxCell id="zl6CoaHRayLzBle9GIP0-48" value="" style="endArrow=none;html=1;rounded=0;strokeColor=#000000;fontSize=14;entryX=0;entryY=1;entryDx=0;entryDy=0;" parent="1" edge="1">
          <mxGeometry width="50" height="50" relative="1" as="geometry">
            <mxPoint x="20" y="570" as="sourcePoint" />
            <mxPoint x="20" y="304" as="targetPoint" />
          </mxGeometry>
        </mxCell>
        <mxCell id="zl6CoaHRayLzBle9GIP0-49" value="&lt;font style=&quot;font-size: 4px;&quot;&gt;101&lt;/font&gt;" style="text;html=1;strokeColor=none;fillColor=none;align=center;verticalAlign=middle;whiteSpace=wrap;rounded=0;fontSize=6;fontColor=#000000;" parent="1" vertex="1">
          <mxGeometry x="-81.5" y="305.87" width="10" height="13.75" as="geometry" />
        </mxCell>
        <mxCell id="zl6CoaHRayLzBle9GIP0-50" value="&lt;font style=&quot;font-size: 4px;&quot;&gt;000&lt;/font&gt;" style="text;html=1;strokeColor=none;fillColor=none;align=center;verticalAlign=middle;whiteSpace=wrap;rounded=0;fontSize=6;fontColor=#000000;" parent="1" vertex="1">
          <mxGeometry x="-81.5" y="297.18" width="10" height="12.82" as="geometry" />
        </mxCell>
        <mxCell id="zl6CoaHRayLzBle9GIP0-51" value="&lt;font style=&quot;font-size: 4px;&quot;&gt;110&lt;/font&gt;" style="text;html=1;strokeColor=none;fillColor=none;align=center;verticalAlign=middle;whiteSpace=wrap;rounded=0;fontSize=6;fontColor=#000000;" parent="1" vertex="1">
          <mxGeometry x="-81.5" y="317.18" width="10" height="14.38" as="geometry" />
        </mxCell>
        <mxCell id="zl6CoaHRayLzBle9GIP0-52" value="&lt;font color=&quot;#ffffff&quot;&gt;-&lt;/font&gt;" style="text;html=1;strokeColor=none;fillColor=none;align=center;verticalAlign=middle;whiteSpace=wrap;rounded=0;" parent="1" vertex="1">
          <mxGeometry x="-260" y="273.75" width="17.87" height="30" as="geometry" />
        </mxCell>
        <mxCell id="zl6CoaHRayLzBle9GIP0-53" value="&lt;font style=&quot;font-size: 4px;&quot;&gt;111&lt;/font&gt;" style="text;html=1;strokeColor=none;fillColor=none;align=center;verticalAlign=middle;whiteSpace=wrap;rounded=0;fontSize=6;fontColor=#000000;" parent="1" vertex="1">
          <mxGeometry x="-81.5" y="281.25" width="10" height="11.87" as="geometry" />
        </mxCell>
        <mxCell id="zl6CoaHRayLzBle9GIP0-54" value="&lt;font color=&quot;#ffffff&quot;&gt;-&lt;/font&gt;" style="text;html=1;strokeColor=none;fillColor=none;align=center;verticalAlign=middle;whiteSpace=wrap;rounded=0;" parent="1" vertex="1">
          <mxGeometry x="-60" y="322.5" width="20" height="20" as="geometry" />
        </mxCell>
        <mxCell id="zl6CoaHRayLzBle9GIP0-55" value="&lt;font color=&quot;#ffffff&quot;&gt;-&lt;/font&gt;" style="text;html=1;strokeColor=none;fillColor=none;align=center;verticalAlign=middle;whiteSpace=wrap;rounded=0;" parent="1" vertex="1">
          <mxGeometry x="-197.87" y="235" width="17.87" height="20" as="geometry" />
        </mxCell>
        <mxCell id="zl6CoaHRayLzBle9GIP0-56" value="&lt;font color=&quot;#ffffff&quot;&gt;-&lt;/font&gt;" style="text;html=1;strokeColor=none;fillColor=none;align=center;verticalAlign=middle;whiteSpace=wrap;rounded=0;" parent="1" vertex="1">
          <mxGeometry x="-166.97" y="255" width="26.97" height="20" as="geometry" />
        </mxCell>
        <mxCell id="zl6CoaHRayLzBle9GIP0-57" value="&lt;font style=&quot;font-size: 4px;&quot;&gt;011&lt;/font&gt;" style="text;html=1;strokeColor=none;fillColor=none;align=center;verticalAlign=middle;whiteSpace=wrap;rounded=0;fontSize=6;fontColor=#000000;" parent="1" vertex="1">
          <mxGeometry x="-81.5" y="290" width="10" height="12.82" as="geometry" />
        </mxCell>
        <mxCell id="zl6CoaHRayLzBle9GIP0-58" value="" style="endArrow=none;html=1;rounded=0;fontSize=7;exitX=0.899;exitY=0.998;exitDx=0;exitDy=0;exitPerimeter=0;" parent="1" edge="1">
          <mxGeometry width="50" height="50" relative="1" as="geometry">
            <mxPoint x="-71.5" y="283.8112500000002" as="sourcePoint" />
            <mxPoint x="-49.960000000000036" y="283.75" as="targetPoint" />
          </mxGeometry>
        </mxCell>
        <mxCell id="zl6CoaHRayLzBle9GIP0-59" value="" style="endArrow=none;html=1;rounded=0;fontSize=10;" parent="1" edge="1">
          <mxGeometry width="50" height="50" relative="1" as="geometry">
            <mxPoint x="-153.23000000000002" y="356.7999999999997" as="sourcePoint" />
            <mxPoint x="-153.23000000000002" y="316.7999999999997" as="targetPoint" />
            <Array as="points">
              <mxPoint x="-153.23" y="336.8" />
            </Array>
          </mxGeometry>
        </mxCell>
        <mxCell id="zl6CoaHRayLzBle9GIP0-60" value="" style="endArrow=none;html=1;rounded=0;fontSize=10;" parent="1" edge="1">
          <mxGeometry width="50" height="50" relative="1" as="geometry">
            <mxPoint x="-153.23000000000002" y="357.04999999999995" as="sourcePoint" />
            <mxPoint x="-133.23000000000002" y="367.04999999999995" as="targetPoint" />
          </mxGeometry>
        </mxCell>
        <mxCell id="zl6CoaHRayLzBle9GIP0-61" value="" style="endArrow=none;html=1;rounded=0;fontSize=10;" parent="1" edge="1">
          <mxGeometry width="50" height="50" relative="1" as="geometry">
            <mxPoint x="-153.23000000000002" y="377.04999999999995" as="sourcePoint" />
            <mxPoint x="-133.23000000000002" y="367.04999999999995" as="targetPoint" />
          </mxGeometry>
        </mxCell>
        <mxCell id="zl6CoaHRayLzBle9GIP0-62" value="" style="endArrow=none;html=1;rounded=0;fontSize=10;" parent="1" edge="1">
          <mxGeometry width="50" height="50" relative="1" as="geometry">
            <mxPoint x="-153.23000000000002" y="417.04999999999995" as="sourcePoint" />
            <mxPoint x="-153.23000000000002" y="377.04999999999995" as="targetPoint" />
            <Array as="points">
              <mxPoint x="-153.23" y="397.05" />
            </Array>
          </mxGeometry>
        </mxCell>
        <mxCell id="zl6CoaHRayLzBle9GIP0-63" value="" style="endArrow=none;html=1;rounded=0;fontSize=10;" parent="1" edge="1">
          <mxGeometry width="50" height="50" relative="1" as="geometry">
            <mxPoint x="-153.23000000000002" y="417.04999999999995" as="sourcePoint" />
            <mxPoint x="-103.23000000000002" y="387.04999999999995" as="targetPoint" />
            <Array as="points" />
          </mxGeometry>
        </mxCell>
        <mxCell id="zl6CoaHRayLzBle9GIP0-64" value="" style="endArrow=none;html=1;rounded=0;fontSize=10;" parent="1" edge="1">
          <mxGeometry width="50" height="50" relative="1" as="geometry">
            <mxPoint x="-153.23000000000002" y="317.04999999999995" as="sourcePoint" />
            <mxPoint x="-103.23000000000002" y="347.04999999999995" as="targetPoint" />
            <Array as="points" />
          </mxGeometry>
        </mxCell>
        <mxCell id="zl6CoaHRayLzBle9GIP0-65" value="" style="endArrow=none;html=1;rounded=0;fontSize=10;" parent="1" edge="1">
          <mxGeometry width="50" height="50" relative="1" as="geometry">
            <mxPoint x="-103.23000000000002" y="387.04999999999995" as="sourcePoint" />
            <mxPoint x="-103.23000000000002" y="347.04999999999995" as="targetPoint" />
          </mxGeometry>
        </mxCell>
        <mxCell id="zl6CoaHRayLzBle9GIP0-66" value="" style="endArrow=none;html=1;rounded=0;fontSize=10;exitX=-0.187;exitY=0.923;exitDx=0;exitDy=0;exitPerimeter=0;" parent="1" source="zl6CoaHRayLzBle9GIP0-10" edge="1">
          <mxGeometry width="50" height="50" relative="1" as="geometry">
            <mxPoint x="-183.23" y="397.05" as="sourcePoint" />
            <mxPoint x="-153.23000000000002" y="397.04999999999995" as="targetPoint" />
            <Array as="points">
              <mxPoint x="-153.23" y="397.05" />
            </Array>
          </mxGeometry>
        </mxCell>
        <mxCell id="zl6CoaHRayLzBle9GIP0-67" value="" style="endArrow=none;html=1;rounded=0;strokeColor=#000000;fontSize=6;exitX=0.144;exitY=1.003;exitDx=0;exitDy=0;exitPerimeter=0;" parent="1" edge="1">
          <mxGeometry width="50" height="50" relative="1" as="geometry">
            <mxPoint x="-71.44000000000005" y="325.9000000000003" as="sourcePoint" />
            <mxPoint x="-60" y="325.84000000000015" as="targetPoint" />
          </mxGeometry>
        </mxCell>
        <mxCell id="zl6CoaHRayLzBle9GIP0-68" value="&lt;font style=&quot;font-size: 4px;&quot;&gt;110&lt;/font&gt;" style="text;html=1;strokeColor=none;fillColor=none;align=center;verticalAlign=middle;whiteSpace=wrap;rounded=0;fontSize=6;fontColor=#000000;" parent="1" vertex="1">
          <mxGeometry x="-81.5" y="316.8" width="10" height="14.38" as="geometry" />
        </mxCell>
        <mxCell id="zl6CoaHRayLzBle9GIP0-69" value="&lt;font color=&quot;#ffffff&quot;&gt;-&lt;/font&gt;" style="text;html=1;strokeColor=none;fillColor=none;align=center;verticalAlign=middle;whiteSpace=wrap;rounded=0;" parent="1" vertex="1">
          <mxGeometry x="-60" y="322.12" width="20" height="20" as="geometry" />
        </mxCell>
        <mxCell id="zl6CoaHRayLzBle9GIP0-70" value="&lt;span style=&quot;background-color: rgb(255, 255, 255);&quot;&gt;&lt;font color=&quot;#ffffff&quot;&gt;-&lt;/font&gt;&lt;/span&gt;" style="text;html=1;strokeColor=none;fillColor=none;align=center;verticalAlign=middle;whiteSpace=wrap;rounded=0;fontSize=6;" parent="1" vertex="1">
          <mxGeometry x="-153.13" y="324.93" width="10.99" height="20" as="geometry" />
        </mxCell>
        <mxCell id="zl6CoaHRayLzBle9GIP0-71" value="&lt;span style=&quot;background-color: rgb(255, 255, 255);&quot;&gt;&lt;font color=&quot;#ffffff&quot;&gt;-&lt;/font&gt;&lt;/span&gt;" style="text;html=1;strokeColor=none;fillColor=none;align=center;verticalAlign=middle;whiteSpace=wrap;rounded=0;fontSize=6;" parent="1" vertex="1">
          <mxGeometry x="-68" y="367.43" width="10.99" height="20" as="geometry" />
        </mxCell>
        <mxCell id="zl6CoaHRayLzBle9GIP0-72" value="" style="endArrow=none;html=1;rounded=0;fontColor=#FFFFFF;entryX=0.129;entryY=1.023;entryDx=0;entryDy=0;entryPerimeter=0;" parent="1" target="zl6CoaHRayLzBle9GIP0-75" edge="1">
          <mxGeometry width="50" height="50" relative="1" as="geometry">
            <mxPoint x="-230" y="313.75" as="sourcePoint" />
            <mxPoint x="-100" y="314" as="targetPoint" />
          </mxGeometry>
        </mxCell>
        <mxCell id="zl6CoaHRayLzBle9GIP0-73" value="" style="endArrow=none;html=1;rounded=0;fontColor=#FFFFFF;exitX=0.25;exitY=0;exitDx=0;exitDy=0;entryX=0.131;entryY=1.015;entryDx=0;entryDy=0;entryPerimeter=0;" parent="1" source="zl6CoaHRayLzBle9GIP0-74" target="zl6CoaHRayLzBle9GIP0-75" edge="1">
          <mxGeometry width="50" height="50" relative="1" as="geometry">
            <mxPoint x="-100" y="367.43" as="sourcePoint" />
            <mxPoint x="-100" y="310.25" as="targetPoint" />
          </mxGeometry>
        </mxCell>
        <mxCell id="zl6CoaHRayLzBle9GIP0-74" value="&lt;span style=&quot;background-color: rgb(255, 255, 255);&quot;&gt;&lt;font color=&quot;#ffffff&quot;&gt;-&lt;/font&gt;&lt;/span&gt;" style="text;html=1;strokeColor=none;fillColor=none;align=center;verticalAlign=middle;whiteSpace=wrap;rounded=0;fontSize=6;" parent="1" vertex="1">
          <mxGeometry x="-100" y="367.43" width="18.5" height="20" as="geometry" />
        </mxCell>
        <mxCell id="zl6CoaHRayLzBle9GIP0-75" value="&lt;span style=&quot;background-color: rgb(255, 255, 255);&quot;&gt;&lt;font color=&quot;#ffffff&quot;&gt;-&lt;/font&gt;&lt;/span&gt;" style="text;html=1;strokeColor=none;fillColor=none;align=center;verticalAlign=middle;whiteSpace=wrap;rounded=0;fontSize=6;" parent="1" vertex="1">
          <mxGeometry x="-100" y="293.59" width="30" height="20" as="geometry" />
        </mxCell>
        <mxCell id="zl6CoaHRayLzBle9GIP0-76" value="" style="endArrow=none;html=1;rounded=0;dashed=1;" parent="1" edge="1">
          <mxGeometry width="50" height="50" relative="1" as="geometry">
            <mxPoint x="-260" y="310" as="sourcePoint" />
            <mxPoint x="-260" y="270" as="targetPoint" />
          </mxGeometry>
        </mxCell>
        <mxCell id="zl6CoaHRayLzBle9GIP0-78" value="" style="endArrow=none;html=1;rounded=0;" parent="1" edge="1">
          <mxGeometry width="50" height="50" relative="1" as="geometry">
            <mxPoint x="180" y="461" as="sourcePoint" />
            <mxPoint x="190" y="461" as="targetPoint" />
          </mxGeometry>
        </mxCell>
        <mxCell id="zl6CoaHRayLzBle9GIP0-79" value="" style="shape=trapezoid;perimeter=trapezoidPerimeter;whiteSpace=wrap;html=1;fixedSize=1;rotation=90;size=11.25;" parent="1" vertex="1">
          <mxGeometry x="140" y="453.75" width="60" height="17.5" as="geometry" />
        </mxCell>
        <mxCell id="zl6CoaHRayLzBle9GIP0-98" value="" style="endArrow=none;html=1;rounded=0;entryX=0;entryY=1;entryDx=0;entryDy=0;" parent="1" target="zl6CoaHRayLzBle9GIP0-113" edge="1">
          <mxGeometry width="50" height="50" relative="1" as="geometry">
            <mxPoint x="270" y="438.68" as="sourcePoint" />
            <mxPoint x="300" y="428.68" as="targetPoint" />
          </mxGeometry>
        </mxCell>
        <mxCell id="zl6CoaHRayLzBle9GIP0-99" value="" style="endArrow=none;html=1;rounded=0;entryX=0;entryY=0;entryDx=0;entryDy=0;" parent="1" target="zl6CoaHRayLzBle9GIP0-112" edge="1">
          <mxGeometry width="50" height="50" relative="1" as="geometry">
            <mxPoint x="270" y="378.68" as="sourcePoint" />
            <mxPoint x="300" y="388.68" as="targetPoint" />
          </mxGeometry>
        </mxCell>
        <mxCell id="zl6CoaHRayLzBle9GIP0-100" value="" style="endArrow=none;html=1;rounded=0;" parent="1" edge="1">
          <mxGeometry width="50" height="50" relative="1" as="geometry">
            <mxPoint x="300" y="423.61" as="sourcePoint" />
            <mxPoint x="300" y="393.61" as="targetPoint" />
          </mxGeometry>
        </mxCell>
        <mxCell id="zl6CoaHRayLzBle9GIP0-102" value="" style="endArrow=none;html=1;rounded=0;" parent="1" edge="1">
          <mxGeometry width="50" height="50" relative="1" as="geometry">
            <mxPoint x="270" y="438.68" as="sourcePoint" />
            <mxPoint x="270" y="418.68" as="targetPoint" />
          </mxGeometry>
        </mxCell>
        <mxCell id="zl6CoaHRayLzBle9GIP0-103" value="" style="endArrow=none;html=1;rounded=0;" parent="1" edge="1">
          <mxGeometry width="50" height="50" relative="1" as="geometry">
            <mxPoint x="270" y="398.68" as="sourcePoint" />
            <mxPoint x="270" y="378.68" as="targetPoint" />
          </mxGeometry>
        </mxCell>
        <mxCell id="zl6CoaHRayLzBle9GIP0-104" value="" style="endArrow=none;html=1;rounded=0;" parent="1" edge="1">
          <mxGeometry width="50" height="50" relative="1" as="geometry">
            <mxPoint x="270" y="418.61" as="sourcePoint" />
            <mxPoint x="280" y="408.68" as="targetPoint" />
          </mxGeometry>
        </mxCell>
        <mxCell id="zl6CoaHRayLzBle9GIP0-105" value="" style="endArrow=none;html=1;rounded=0;" parent="1" edge="1">
          <mxGeometry width="50" height="50" relative="1" as="geometry">
            <mxPoint x="280" y="408.61" as="sourcePoint" />
            <mxPoint x="270" y="398.61" as="targetPoint" />
          </mxGeometry>
        </mxCell>
        <mxCell id="zl6CoaHRayLzBle9GIP0-110" value="&lt;font style=&quot;font-size: 14px;&quot;&gt;+&lt;/font&gt;" style="text;html=1;strokeColor=none;fillColor=none;align=center;verticalAlign=middle;whiteSpace=wrap;rounded=0;fontSize=10;" parent="1" vertex="1">
          <mxGeometry x="280" y="388.3" width="20" height="40" as="geometry" />
        </mxCell>
        <mxCell id="zl6CoaHRayLzBle9GIP0-112" value="&lt;font color=&quot;#ffffff&quot; style=&quot;font-size: 14px;&quot;&gt;+&lt;/font&gt;" style="text;html=1;strokeColor=none;fillColor=none;align=center;verticalAlign=middle;whiteSpace=wrap;rounded=0;fontSize=10;" parent="1" vertex="1">
          <mxGeometry x="300" y="393.61" width="10" height="13.2" as="geometry" />
        </mxCell>
        <mxCell id="zl6CoaHRayLzBle9GIP0-113" value="&lt;font color=&quot;#ffffff&quot; style=&quot;font-size: 14px;&quot;&gt;+&lt;/font&gt;" style="text;html=1;strokeColor=none;fillColor=none;align=center;verticalAlign=middle;whiteSpace=wrap;rounded=0;fontSize=10;" parent="1" vertex="1">
          <mxGeometry x="300" y="410.8" width="10" height="13.2" as="geometry" />
        </mxCell>
        <mxCell id="zl6CoaHRayLzBle9GIP0-114" value="&lt;font style=&quot;font-size: 12px;&quot;&gt;1&lt;/font&gt;" style="text;html=1;strokeColor=none;fillColor=none;align=center;verticalAlign=middle;whiteSpace=wrap;rounded=0;fontSize=14;" parent="1" vertex="1">
          <mxGeometry x="250" y="416.11" width="20" height="12.5" as="geometry" />
        </mxCell>
        <mxCell id="zl6CoaHRayLzBle9GIP0-116" value="" style="endArrow=none;html=1;rounded=0;fontSize=10;exitX=-0.187;exitY=0.923;exitDx=0;exitDy=0;exitPerimeter=0;" parent="1" edge="1">
          <mxGeometry width="50" height="50" relative="1" as="geometry">
            <mxPoint x="251.23000000000002" y="428.43" as="sourcePoint" />
            <mxPoint x="270" y="428.29999999999995" as="targetPoint" />
            <Array as="points">
              <mxPoint x="270" y="428.3" />
            </Array>
          </mxGeometry>
        </mxCell>
        <mxCell id="zl6CoaHRayLzBle9GIP0-117" value="" style="endArrow=none;html=1;rounded=0;fontColor=#FFFFFF;" parent="1" edge="1">
          <mxGeometry width="50" height="50" relative="1" as="geometry">
            <mxPoint x="140" y="444.77" as="sourcePoint" />
            <mxPoint x="160" y="444.77" as="targetPoint" />
          </mxGeometry>
        </mxCell>
        <mxCell id="zl6CoaHRayLzBle9GIP0-118" value="" style="endArrow=none;html=1;rounded=0;fontColor=#FFFFFF;" parent="1" edge="1">
          <mxGeometry width="50" height="50" relative="1" as="geometry">
            <mxPoint x="140" y="444.86" as="sourcePoint" />
            <mxPoint x="140" y="360" as="targetPoint" />
          </mxGeometry>
        </mxCell>
        <mxCell id="zl6CoaHRayLzBle9GIP0-119" value="" style="endArrow=none;html=1;rounded=0;fontColor=#FFFFFF;" parent="1" edge="1">
          <mxGeometry width="50" height="50" relative="1" as="geometry">
            <mxPoint x="140" y="360" as="sourcePoint" />
            <mxPoint x="310" y="360" as="targetPoint" />
          </mxGeometry>
        </mxCell>
        <mxCell id="zl6CoaHRayLzBle9GIP0-121" value="" style="endArrow=none;html=1;rounded=0;fontColor=#FFFFFF;" parent="1" edge="1">
          <mxGeometry width="50" height="50" relative="1" as="geometry">
            <mxPoint x="310" y="361.18" as="sourcePoint" />
            <mxPoint x="310" y="410" as="targetPoint" />
          </mxGeometry>
        </mxCell>
        <mxCell id="zl6CoaHRayLzBle9GIP0-122" value="" style="endArrow=none;html=1;rounded=0;fontColor=#FFFFFF;" parent="1" edge="1">
          <mxGeometry width="50" height="50" relative="1" as="geometry">
            <mxPoint x="230" y="463.75" as="sourcePoint" />
            <mxPoint x="240" y="464" as="targetPoint" />
          </mxGeometry>
        </mxCell>
        <mxCell id="zl6CoaHRayLzBle9GIP0-123" value="" style="endArrow=none;html=1;rounded=0;fontColor=#FFFFFF;" parent="1" edge="1">
          <mxGeometry width="50" height="50" relative="1" as="geometry">
            <mxPoint x="240" y="462.43" as="sourcePoint" />
            <mxPoint x="240" y="387.43" as="targetPoint" />
          </mxGeometry>
        </mxCell>
        <mxCell id="zl6CoaHRayLzBle9GIP0-124" value="" style="endArrow=none;html=1;rounded=0;fontColor=#FFFFFF;" parent="1" edge="1">
          <mxGeometry width="50" height="50" relative="1" as="geometry">
            <mxPoint x="240" y="389.65000000000003" as="sourcePoint" />
            <mxPoint x="270" y="390.11" as="targetPoint" />
          </mxGeometry>
        </mxCell>
        <mxCell id="zl6CoaHRayLzBle9GIP0-125" value="" style="endArrow=none;html=1;rounded=0;dashed=1;" parent="1" edge="1">
          <mxGeometry width="50" height="50" relative="1" as="geometry">
            <mxPoint x="169.88000000000002" y="437.12" as="sourcePoint" />
            <mxPoint x="170.08" y="305.87" as="targetPoint" />
          </mxGeometry>
        </mxCell>
        <mxCell id="zl6CoaHRayLzBle9GIP0-127" value="" style="rounded=0;whiteSpace=wrap;html=1;fontSize=6;" parent="1" vertex="1">
          <mxGeometry x="320" y="400.63" width="30" height="70" as="geometry" />
        </mxCell>
        <mxCell id="zl6CoaHRayLzBle9GIP0-128" value="" style="triangle;whiteSpace=wrap;html=1;fontSize=6;" parent="1" vertex="1">
          <mxGeometry x="320" y="445.63" width="10" height="15" as="geometry" />
        </mxCell>
        <mxCell id="zl6CoaHRayLzBle9GIP0-129" value="" style="endArrow=none;html=1;rounded=0;fontSize=6;" parent="1" edge="1">
          <mxGeometry width="50" height="50" relative="1" as="geometry">
            <mxPoint x="310" y="453.08000000000004" as="sourcePoint" />
            <mxPoint x="320" y="453.08000000000004" as="targetPoint" />
          </mxGeometry>
        </mxCell>
        <mxCell id="zl6CoaHRayLzBle9GIP0-130" value="" style="endArrow=none;html=1;rounded=0;" parent="1" edge="1">
          <mxGeometry width="50" height="50" relative="1" as="geometry">
            <mxPoint x="335" y="400.63" as="sourcePoint" />
            <mxPoint x="335" y="394.38" as="targetPoint" />
          </mxGeometry>
        </mxCell>
        <mxCell id="zl6CoaHRayLzBle9GIP0-131" value="" style="endArrow=none;html=1;rounded=0;exitX=1;exitY=0.5;exitDx=0;exitDy=0;dashed=1;" parent="1" edge="1">
          <mxGeometry width="50" height="50" relative="1" as="geometry">
            <mxPoint x="335" y="394.38" as="sourcePoint" />
            <mxPoint x="360" y="394.38" as="targetPoint" />
          </mxGeometry>
        </mxCell>
        <mxCell id="zl6CoaHRayLzBle9GIP0-132" value="" style="rounded=0;whiteSpace=wrap;html=1;fontSize=6;" parent="1" vertex="1">
          <mxGeometry x="320" y="493.13" width="30" height="70" as="geometry" />
        </mxCell>
        <mxCell id="zl6CoaHRayLzBle9GIP0-133" value="" style="triangle;whiteSpace=wrap;html=1;fontSize=6;" parent="1" vertex="1">
          <mxGeometry x="320" y="538.13" width="10" height="15" as="geometry" />
        </mxCell>
        <mxCell id="zl6CoaHRayLzBle9GIP0-134" value="" style="endArrow=none;html=1;rounded=0;fontSize=6;" parent="1" edge="1">
          <mxGeometry width="50" height="50" relative="1" as="geometry">
            <mxPoint x="310" y="545.58" as="sourcePoint" />
            <mxPoint x="320" y="545.58" as="targetPoint" />
          </mxGeometry>
        </mxCell>
        <mxCell id="zl6CoaHRayLzBle9GIP0-135" value="" style="endArrow=none;html=1;rounded=0;" parent="1" edge="1">
          <mxGeometry width="50" height="50" relative="1" as="geometry">
            <mxPoint x="335" y="493.13" as="sourcePoint" />
            <mxPoint x="335" y="486.88" as="targetPoint" />
          </mxGeometry>
        </mxCell>
        <mxCell id="zl6CoaHRayLzBle9GIP0-136" value="" style="endArrow=none;html=1;rounded=0;exitX=1;exitY=0.5;exitDx=0;exitDy=0;dashed=1;" parent="1" edge="1">
          <mxGeometry width="50" height="50" relative="1" as="geometry">
            <mxPoint x="335" y="486.88" as="sourcePoint" />
            <mxPoint x="360" y="486.88" as="targetPoint" />
          </mxGeometry>
        </mxCell>
        <mxCell id="zl6CoaHRayLzBle9GIP0-140" value="" style="endArrow=none;html=1;rounded=0;fontColor=#FFFFFF;" parent="1" edge="1">
          <mxGeometry width="50" height="50" relative="1" as="geometry">
            <mxPoint x="300" y="409.93" as="sourcePoint" />
            <mxPoint x="320" y="410" as="targetPoint" />
          </mxGeometry>
        </mxCell>
        <mxCell id="zl6CoaHRayLzBle9GIP0-141" value="" style="endArrow=none;html=1;rounded=0;dashed=1;" parent="1" edge="1">
          <mxGeometry width="50" height="50" relative="1" as="geometry">
            <mxPoint x="360" y="486.25" as="sourcePoint" />
            <mxPoint x="360" y="300" as="targetPoint" />
          </mxGeometry>
        </mxCell>
        <mxCell id="zl6CoaHRayLzBle9GIP0-142" value="IRAM" style="rounded=0;whiteSpace=wrap;html=1;fontSize=6;" parent="1" vertex="1">
          <mxGeometry x="200" y="553.44" width="80" height="93.75" as="geometry" />
        </mxCell>
        <mxCell id="zl6CoaHRayLzBle9GIP0-144" value="" style="triangle;whiteSpace=wrap;html=1;fontSize=6;" parent="1" vertex="1">
          <mxGeometry x="200" y="620" width="10" height="15" as="geometry" />
        </mxCell>
        <mxCell id="zl6CoaHRayLzBle9GIP0-145" value="" style="endArrow=none;html=1;rounded=0;fontSize=6;" parent="1" edge="1">
          <mxGeometry width="50" height="50" relative="1" as="geometry">
            <mxPoint x="190" y="627.4200000000001" as="sourcePoint" />
            <mxPoint x="200" y="627.4200000000001" as="targetPoint" />
          </mxGeometry>
        </mxCell>
        <mxCell id="zl6CoaHRayLzBle9GIP0-146" value="" style="endArrow=none;html=1;rounded=0;fontColor=#FFFFFF;" parent="1" edge="1">
          <mxGeometry width="50" height="50" relative="1" as="geometry">
            <mxPoint x="300" y="505" as="sourcePoint" />
            <mxPoint x="320" y="505" as="targetPoint" />
          </mxGeometry>
        </mxCell>
        <mxCell id="zl6CoaHRayLzBle9GIP0-147" value="" style="endArrow=none;html=1;rounded=0;fontColor=#FFFFFF;" parent="1" edge="1">
          <mxGeometry width="50" height="50" relative="1" as="geometry">
            <mxPoint x="280" y="573.05" as="sourcePoint" />
            <mxPoint x="300" y="573.05" as="targetPoint" />
          </mxGeometry>
        </mxCell>
        <mxCell id="zl6CoaHRayLzBle9GIP0-148" value="" style="endArrow=none;html=1;rounded=0;fontColor=#FFFFFF;" parent="1" edge="1">
          <mxGeometry width="50" height="50" relative="1" as="geometry">
            <mxPoint x="300" y="570" as="sourcePoint" />
            <mxPoint x="299.84000000000003" y="505" as="targetPoint" />
          </mxGeometry>
        </mxCell>
        <mxCell id="zl6CoaHRayLzBle9GIP0-151" value="" style="endArrow=none;html=1;rounded=0;fontColor=#FFFFFF;" parent="1" edge="1">
          <mxGeometry width="50" height="50" relative="1" as="geometry">
            <mxPoint x="180" y="572.99" as="sourcePoint" />
            <mxPoint x="200" y="572.99" as="targetPoint" />
          </mxGeometry>
        </mxCell>
        <mxCell id="U172369hrZJjNTWMAhXC-1" value="&lt;font style=&quot;font-size: 6px;&quot;&gt;Register File&lt;/font&gt;" style="rounded=0;whiteSpace=wrap;html=1;fontSize=12;" parent="1" vertex="1">
          <mxGeometry x="450" y="366.57" width="80" height="125" as="geometry" />
        </mxCell>
        <mxCell id="U172369hrZJjNTWMAhXC-2" value="" style="endArrow=none;html=1;rounded=0;fontSize=6;" parent="1" edge="1">
          <mxGeometry width="50" height="50" relative="1" as="geometry">
            <mxPoint x="440" y="473.9999999999996" as="sourcePoint" />
            <mxPoint x="450" y="473.9999999999996" as="targetPoint" />
          </mxGeometry>
        </mxCell>
        <mxCell id="U172369hrZJjNTWMAhXC-3" value="" style="endArrow=none;html=1;rounded=0;fontSize=6;" parent="1" edge="1">
          <mxGeometry width="50" height="50" relative="1" as="geometry">
            <mxPoint x="440" y="486.57" as="sourcePoint" />
            <mxPoint x="450" y="486.57" as="targetPoint" />
            <Array as="points">
              <mxPoint x="450" y="486.57" />
            </Array>
          </mxGeometry>
        </mxCell>
        <mxCell id="U172369hrZJjNTWMAhXC-4" value="clk" style="text;html=1;strokeColor=none;fillColor=none;align=center;verticalAlign=middle;whiteSpace=wrap;rounded=0;fontSize=6;" parent="1" vertex="1">
          <mxGeometry x="420" y="457.82" width="50" height="20" as="geometry" />
        </mxCell>
        <mxCell id="U172369hrZJjNTWMAhXC-5" value="rst" style="text;html=1;strokeColor=none;fillColor=none;align=center;verticalAlign=middle;whiteSpace=wrap;rounded=0;fontSize=6;" parent="1" vertex="1">
          <mxGeometry x="420" y="466.57" width="50" height="25" as="geometry" />
        </mxCell>
        <mxCell id="U172369hrZJjNTWMAhXC-6" value="" style="endArrow=none;html=1;rounded=0;entryX=0.663;entryY=0.043;entryDx=0;entryDy=0;entryPerimeter=0;" parent="1" edge="1">
          <mxGeometry width="50" height="50" relative="1" as="geometry">
            <mxPoint x="410" y="381.57" as="sourcePoint" />
            <mxPoint x="449.77999999999975" y="381.6100000000002" as="targetPoint" />
          </mxGeometry>
        </mxCell>
        <mxCell id="U172369hrZJjNTWMAhXC-7" value="" style="endArrow=none;html=1;rounded=0;entryX=0.021;entryY=0.475;entryDx=0;entryDy=0;entryPerimeter=0;" parent="1" target="U172369hrZJjNTWMAhXC-12" edge="1">
          <mxGeometry width="50" height="50" relative="1" as="geometry">
            <mxPoint x="420.40999999999985" y="386.57" as="sourcePoint" />
            <mxPoint x="427.90999999999997" y="377.195" as="targetPoint" />
          </mxGeometry>
        </mxCell>
        <mxCell id="U172369hrZJjNTWMAhXC-9" value="" style="triangle;whiteSpace=wrap;html=1;fontSize=6;" parent="1" vertex="1">
          <mxGeometry x="450" y="466.57" width="10" height="15" as="geometry" />
        </mxCell>
        <mxCell id="U172369hrZJjNTWMAhXC-10" value="32" style="text;html=1;strokeColor=none;fillColor=none;align=center;verticalAlign=middle;whiteSpace=wrap;rounded=0;fontSize=6;" parent="1" vertex="1">
          <mxGeometry x="413" y="371.19" width="10" height="10" as="geometry" />
        </mxCell>
        <mxCell id="U172369hrZJjNTWMAhXC-12" value="data_in" style="text;html=1;strokeColor=none;fillColor=none;align=center;verticalAlign=middle;whiteSpace=wrap;rounded=0;fontSize=6;" parent="1" vertex="1">
          <mxGeometry x="425" y="372.82" width="25.63" height="8.75" as="geometry" />
        </mxCell>
        <mxCell id="U172369hrZJjNTWMAhXC-27" value="&lt;font color=&quot;#ffffff&quot;&gt;-&lt;/font&gt;" style="text;html=1;strokeColor=none;fillColor=none;align=center;verticalAlign=middle;whiteSpace=wrap;rounded=0;" parent="1" vertex="1">
          <mxGeometry x="528.13" y="491.57" width="17.87" height="13.43" as="geometry" />
        </mxCell>
        <mxCell id="ETD5DrS1PiLwi1zSe9ay-3" value="" style="endArrow=none;html=1;rounded=0;entryX=0.002;entryY=0.358;entryDx=0;entryDy=0;entryPerimeter=0;" edge="1" parent="1">
          <mxGeometry width="50" height="50" relative="1" as="geometry">
            <mxPoint x="389.84" y="424.35" as="sourcePoint" />
            <mxPoint x="449.99999999999994" y="424.56" as="targetPoint" />
          </mxGeometry>
        </mxCell>
        <mxCell id="ETD5DrS1PiLwi1zSe9ay-4" value="" style="endArrow=none;html=1;rounded=0;entryX=0.021;entryY=0.475;entryDx=0;entryDy=0;entryPerimeter=0;" edge="1" parent="1" target="ETD5DrS1PiLwi1zSe9ay-6">
          <mxGeometry width="50" height="50" relative="1" as="geometry">
            <mxPoint x="400.24999999999983" y="429.35" as="sourcePoint" />
            <mxPoint x="407.74999999999994" y="419.975" as="targetPoint" />
          </mxGeometry>
        </mxCell>
        <mxCell id="ETD5DrS1PiLwi1zSe9ay-5" value="5" style="text;html=1;strokeColor=none;fillColor=none;align=center;verticalAlign=middle;whiteSpace=wrap;rounded=0;fontSize=6;" vertex="1" parent="1">
          <mxGeometry x="392.84" y="413.97" width="10" height="10" as="geometry" />
        </mxCell>
        <mxCell id="ETD5DrS1PiLwi1zSe9ay-6" value="read_one_addr" style="text;html=1;strokeColor=none;fillColor=none;align=center;verticalAlign=middle;whiteSpace=wrap;rounded=0;fontSize=6;" vertex="1" parent="1">
          <mxGeometry x="404.84" y="415.6" width="45" height="8.75" as="geometry" />
        </mxCell>
        <mxCell id="ETD5DrS1PiLwi1zSe9ay-7" value="" style="endArrow=none;html=1;rounded=0;entryX=0;entryY=0.522;entryDx=0;entryDy=0;entryPerimeter=0;" edge="1" parent="1">
          <mxGeometry width="50" height="50" relative="1" as="geometry">
            <mxPoint x="389.84" y="445" as="sourcePoint" />
            <mxPoint x="449.84" y="445.06000000000006" as="targetPoint" />
          </mxGeometry>
        </mxCell>
        <mxCell id="ETD5DrS1PiLwi1zSe9ay-8" value="" style="endArrow=none;html=1;rounded=0;entryX=0.021;entryY=0.475;entryDx=0;entryDy=0;entryPerimeter=0;" edge="1" parent="1" target="ETD5DrS1PiLwi1zSe9ay-10">
          <mxGeometry width="50" height="50" relative="1" as="geometry">
            <mxPoint x="400.24999999999983" y="450" as="sourcePoint" />
            <mxPoint x="407.74999999999994" y="440.625" as="targetPoint" />
          </mxGeometry>
        </mxCell>
        <mxCell id="ETD5DrS1PiLwi1zSe9ay-9" value="5" style="text;html=1;strokeColor=none;fillColor=none;align=center;verticalAlign=middle;whiteSpace=wrap;rounded=0;fontSize=6;" vertex="1" parent="1">
          <mxGeometry x="392.84" y="434.62" width="10" height="10" as="geometry" />
        </mxCell>
        <mxCell id="ETD5DrS1PiLwi1zSe9ay-10" value="read_two_addr" style="text;html=1;strokeColor=none;fillColor=none;align=center;verticalAlign=middle;whiteSpace=wrap;rounded=0;fontSize=6;" vertex="1" parent="1">
          <mxGeometry x="404.84" y="436.25" width="45" height="8.75" as="geometry" />
        </mxCell>
        <mxCell id="ETD5DrS1PiLwi1zSe9ay-11" value="" style="endArrow=none;html=1;rounded=0;entryX=0.002;entryY=0.358;entryDx=0;entryDy=0;entryPerimeter=0;" edge="1" parent="1">
          <mxGeometry width="50" height="50" relative="1" as="geometry">
            <mxPoint x="389.84" y="405" as="sourcePoint" />
            <mxPoint x="449.99999999999994" y="405.21" as="targetPoint" />
          </mxGeometry>
        </mxCell>
        <mxCell id="ETD5DrS1PiLwi1zSe9ay-12" value="" style="endArrow=none;html=1;rounded=0;entryX=0.021;entryY=0.475;entryDx=0;entryDy=0;entryPerimeter=0;" edge="1" parent="1" target="ETD5DrS1PiLwi1zSe9ay-14">
          <mxGeometry width="50" height="50" relative="1" as="geometry">
            <mxPoint x="400.24999999999983" y="410" as="sourcePoint" />
            <mxPoint x="407.74999999999994" y="400.625" as="targetPoint" />
          </mxGeometry>
        </mxCell>
        <mxCell id="ETD5DrS1PiLwi1zSe9ay-13" value="5" style="text;html=1;strokeColor=none;fillColor=none;align=center;verticalAlign=middle;whiteSpace=wrap;rounded=0;fontSize=6;" vertex="1" parent="1">
          <mxGeometry x="392.84" y="394.62" width="10" height="10" as="geometry" />
        </mxCell>
        <mxCell id="ETD5DrS1PiLwi1zSe9ay-14" value="write_addr" style="text;html=1;strokeColor=none;fillColor=none;align=center;verticalAlign=middle;whiteSpace=wrap;rounded=0;fontSize=6;" vertex="1" parent="1">
          <mxGeometry x="404.84" y="396.25" width="45" height="8.75" as="geometry" />
        </mxCell>
      </root>
    </mxGraphModel>
  </diagram>
</mxfile>
